<svg xmlns="http://www.w3.org/2000/svg" viewBox="0 0 560 420" width="560" height="420">
  <rect width="560" height="420" fill="#bfd9ff"/>
  <rect x="32" y="32" width="496" height="48" rx="10" fill="#ffffff" opacity="0.9"/>
  <circle cx="58" cy="56" r="8" fill="#3b7af0"/>
  <rect x="80" y="48" width="160" height="16" rx="4" fill="#9db8e8"/>
  <rect x="32" y="100" width="152" height="288" rx="12" fill="#ffffff" opacity="0.85"/>
  <rect x="204" y="100" width="152" height="180" rx="12" fill="#ffffff" opacity="0.85"/>
  <rect x="204" y="292" width="152" height="96" rx="12" fill="#ffffff" opacity="0.85"/>
  <rect x="376" y="100" width="152" height="124" rx="12" fill="#ffffff" opacity="0.85"/>
  <rect x="376" y="236" width="152" height="152" rx="12" fill="#ffffff" opacity="0.85"/>
  <g opacity="0.6">
    <rect x="48" y="120" width="120" height="10" rx="3" fill="#3b7af0"/>
    <rect x="48" y="140" width="90" height="8" rx="3" fill="#9db8e8"/>
    <rect x="48" y="158" width="100" height="8" rx="3" fill="#9db8e8"/>
    <rect x="220" y="120" width="120" height="10" rx="3" fill="#3b7af0"/>
    <rect x="220" y="140" width="90" height="8" rx="3" fill="#9db8e8"/>
    <rect x="392" y="120" width="120" height="10" rx="3" fill="#3b7af0"/>
    <rect x="392" y="140" width="90" height="8" rx="3" fill="#9db8e8"/>
  </g>
</svg>
